Captain.America.The.First.Avenger.BRRip.XviD-RLF
                                            
General:

Complete name                    : rlf-catfa.avi
Format                           : AVI
Format/Info                      : Audio Video Interleave
File size                        : 1.36 GiB
Duration                         : 2h 4mn
Overall bit rate                 : 1 566 Kbps
Language                         : English
Subs                             : Polish 
Encoder                          : Ralf

Video:

Format                           : MPEG-4 Visual
Format profile                   : Advanced Simple@L5
Format settings, BVOP            : 2
Format settings, QPel            : No
Format settings, GMC             : No warppoints
Format settings, Matrix          : H.263
Muxing mode                      : Packed bitstream
Codec ID                         : XVID
Duration                         : 2h 4mn
Bit rate                         : 1 429 Kbps
Width                            : 688 pixels
Height                           : 288 pixels
Display aspect ratio             : 2.35:1
Frame rate                       : 23.976 fps
Color space                      : YUV
Chroma subsampling               : 4:2:0
Bit depth                        : 8 bits
Scan type                        : Progressive
Bits/(Pixel*Frame)               : 0.301
Stream size                      : 1.24 GiB (91%)

Audio:

Format                           : MPEG Audio
Format profile                   : Layer 3
Codec ID/Hint                    : MP3
Duration                         : 2h 4mn
Bit rate mode                    : Constant
Bit rate                         : 128 Kbps
Channel(s)                       : 2 channels
Sampling rate                    : 48.0 KHz
Stream size                      : 114 MiB (8%)
Alignment                        : Split accross interleaves
Interleave, duration             : 42 ms (1.00 video frame)

MOVIE INFO:

After being deemed unfit for military service, Steve Rogers volunteers for a 
top secret research project that turns him into Captain America, a superhero 
dedicated to defending America's ideals.
                                
http://www.imdb.com/title/tt0458339/
                   
SOURCE:

MHD 720p.BluRay.x264 (THX)


CONTACT:

 
http://www.postimg.com/50000/photo-49458.jpg 
http://www.postimg.com/50000/photo-49459.jpg 
http://www.postimg.com/50000/photo-49460.jpg 
http://www.postimg.com/50000/photo-49461.jpg 
http://www.postimg.com/50000/photo-49462.jpg